<?xml version="1.0" standalone="no"?><!DOCTYPE svg PUBLIC "-//W3C//DTD SVG 1.1//EN" "http://www.w3.org/Graphics/SVG/1.1/DTD/svg11.dtd"><svg class="icon" width="200px" height="200.00px" viewBox="0 0 1024 1024" version="1.1" xmlns="http://www.w3.org/2000/svg"><path fill="#333333" d="M883.618909 114.874182a33.140364 33.140364 0 0 1 27.182546 32.674909v431.941818A313.716364 313.716364 0 0 1 847.127273 767.813818a492.823273 492.823273 0 0 1-134.237091 121.018182 778.612364 778.612364 0 0 1-191.394909 86.946909 32.209455 32.209455 0 0 1-17.314909 0 773.399273 773.399273 0 0 1-192.139637-85.829818A488.261818 488.261818 0 0 1 176.872727 768.744727a313.902545 313.902545 0 0 1-63.767272-189.253818v-431.941818a33.326545 33.326545 0 0 1 27.275636-32.768l366.685091-67.490909a37.236364 37.236364 0 0 1 12.008727 0zM844.334545 579.490909V182.085818a8.378182 8.378182 0 0 0-6.795636-8.192l-323.025454-59.857454a8.005818 8.005818 0 0 0-2.97891 0L186.181818 173.893818a8.378182 8.378182 0 0 0-6.795636 8.192v397.405091q0 216.157091 330.565818 328.890182a7.726545 7.726545 0 0 0 5.399273 0 744.727273 744.727273 0 0 0 163.374545-76.148364c109.847273-70.376727 165.608727-155.461818 165.608727-252.741818zM450.001455 567.854545l230.120727-179.665454a33.233455 33.233455 0 0 1 40.96 52.410182l-250.414546 195.490909a33.419636 33.419636 0 0 1-24.296727 6.888727 33.792 33.792 0 0 1-17.128727-6.888727L305.617455 539.927273a33.233455 33.233455 0 0 1 40.96-52.410182z"  /></svg>